<?xml version="1.0" encoding="UTF-8" standalone="no"?>
<!-- Created with Inkscape (http://www.inkscape.org/) -->

<svg
   xmlns:dc="http://purl.org/dc/elements/1.1/"
   xmlns:cc="http://creativecommons.org/ns#"
   xmlns:rdf="http://www.w3.org/1999/02/22-rdf-syntax-ns#"
   xmlns:svg="http://www.w3.org/2000/svg"
   xmlns="http://www.w3.org/2000/svg"
   xmlns:sodipodi="http://sodipodi.sourceforge.net/DTD/sodipodi-0.dtd"
   xmlns:inkscape="http://www.inkscape.org/namespaces/inkscape"
   width="38.120987mm"
   height="36.853626mm"
   viewBox="0 0 38.120987 36.853626"
   version="1.1"
   id="svg2260"
   inkscape:version="0.92.2 (5c3e80d, 2017-08-06)"
   sodipodi:docname="drawing-2.svg">
  <defs
     id="defs2254" />
  <sodipodi:namedview
     id="base"
     pagecolor="#ffffff"
     bordercolor="#666666"
     borderopacity="1.0"
     inkscape:pageopacity="0.0"
     inkscape:pageshadow="2"
     inkscape:zoom="0.35"
     inkscape:cx="69.182498"
     inkscape:cy="-230.35535"
     inkscape:document-units="mm"
     inkscape:current-layer="layer1"
     showgrid="false"
     fit-margin-top="0"
     fit-margin-left="0"
     fit-margin-right="0"
     fit-margin-bottom="0"
     inkscape:window-width="1366"
     inkscape:window-height="705"
     inkscape:window-x="-8"
     inkscape:window-y="-8"
     inkscape:window-maximized="1" />
  <metadata
     id="metadata2257">
    <rdf:RDF>
      <cc:Work
         rdf:about="">
        <dc:format>image/svg+xml</dc:format>
        <dc:type
           rdf:resource="http://purl.org/dc/dcmitype/StillImage" />
        <dc:title></dc:title>
      </cc:Work>
    </rdf:RDF>
  </metadata>
  <g
     inkscape:label="Layer 1"
     inkscape:groupmode="layer"
     id="layer1"
     transform="translate(-87.528797,-51.03152)">
    <g
       transform="translate(-64.721117,-16.493846)"
       id="g2237">
      <g
         transform="matrix(0.34482714,0,0,-0.33336313,189.82631,85.952046)"
         id="g82">
        <path
           inkscape:connector-curvature="0"
           id="path84"
           style="fill:#0073ff;fill-opacity:1;fill-rule:nonzero;stroke:none"
           d="m 0,0 c 0,-29.656 -24.041,-53.696 -53.696,-53.696 -29.656,0 -53.697,24.04 -53.697,53.696 0,29.656 24.041,53.696 53.697,53.696 C -24.041,53.696 0,29.656 0,0" />
      </g>
      <g
         transform="matrix(0.34482714,0,0,-0.33336313,158.17728,75.334364)"
         id="g86">
        <path
           inkscape:connector-curvature="0"
           id="path88"
           style="fill:#82f50a;fill-opacity:1;fill-rule:nonzero;stroke:none"
           d="M 0,0 1.6,-0.087 3.447,1.322 5.419,0.452 8.55,2.577 c 0,0 0.834,0.135 1.251,0.154 0.416,0.02 1.52,0 1.52,0 l 2.546,2.847 3.729,-0.115 0.766,0.913 2.152,1.722 c 0,0 2.084,-0.683 2.974,-1.048 l 5.655,2.885 0.597,3.981 h -2.479 l -1.25,0.164 c 0,0 -0.417,0 -0.484,0.135 -0.068,0.134 0.18,0.413 0.247,0.49 0.068,0.077 0.181,0.106 0.147,0.269 -0.034,0.164 -1.228,0.952 -1.228,0.952 -0.079,0.087 -0.27,0.26 0.023,0.452 0.292,0.193 1.554,1.01 1.554,1.01 l -1.735,1.26 -3.852,-1.202 -6.698,-2.222 c 0,0 -13.602,-9.511 -15.044,-12.493 L -1.6,1.827 0.634,1.5 Z m 88.876,-37.669 c -0.139,-0.029 -0.238,-0.151 -0.364,-0.215 -0.359,-0.181 -0.802,0.197 -0.822,0.598 -0.02,0.402 0.24,0.762 0.525,1.047 0.105,0.105 0.268,0.428 0.33,0.563 0.176,0.389 -0.184,0.613 -0.151,1.039 0.027,0.349 0.276,0.632 0.461,0.929 0.185,0.297 0.195,0.647 0.085,0.979 -0.096,0.291 -0.401,0.24 -0.634,0.284 0.033,0.595 -0.378,0.977 -0.643,1.673 -0.101,0.266 0.202,0.903 0.127,1.177 -0.099,0.366 -0.356,0.169 -0.382,0.52 0,0 -0.136,1.965 -0.335,2.099 -0.198,0.134 -0.544,-0.009 -0.502,0.313 0.042,0.321 0.45,0.702 0.534,0.838 0.083,0.135 0.701,1.243 0.743,1.788 0.041,0.544 0.041,1.134 -0.074,1.339 -0.115,0.206 -2.479,5.529 -2.479,5.529 0,0 0.052,0.384 0.062,0.608 0.011,0.223 -0.397,1.322 -0.523,1.607 -0.125,0.286 -0.878,1.662 -1.171,1.903 -0.293,0.241 -0.444,0.334 -0.423,0.468 0.021,0.134 0.036,0.211 0.046,0.345 0.01,0.134 -0.259,0.566 -0.575,0.83 -0.367,0.17 -0.523,0.215 -0.766,0.143 -0.304,-0.089 -0.479,-0.269 -0.615,-0.264 -0.241,0.009 -0.461,0.121 -0.701,0.13 -0.241,0.009 -2.166,-0.558 -2.276,-0.611 -0.11,-0.054 -0.507,-0.594 -0.591,-0.675 -0.084,-0.08 -0.565,-0.455 -0.701,-0.473 -0.136,-0.018 -0.481,0.491 -0.565,0.491 -0.084,0 -0.282,0.063 -0.544,0 -0.262,-0.062 -0.879,-0.401 -0.931,-0.562 -0.052,-0.162 0.157,-0.778 0.157,-0.876 0,-0.098 0,-0.161 -0.126,-0.205 -0.125,-0.045 -0.45,-0.081 -0.565,-0.152 -0.115,-0.072 -1.517,-0.911 -1.559,-1.286 -0.041,-0.376 0.011,-1.876 0.136,-2.162 0.126,-0.286 0.262,-0.732 0.293,-0.866 0.032,-0.134 0.251,-0.34 0.419,-0.42 0.167,-0.081 0.628,-0.393 0.638,-0.867 0.011,-0.473 -0.795,-2.438 -0.795,-2.483 0,-0.044 0.052,-0.169 0.115,-0.205 0.063,-0.036 1.392,-0.072 1.465,-0.188 0.073,-0.116 0.523,-0.625 0.544,-0.768 0.021,-0.143 -0.523,-0.947 -0.576,-1.018 -0.03,-0.041 -0.242,-0.125 -0.448,-0.177 -0.176,0.029 -0.334,0.126 -0.43,0.244 -0.05,0.114 0.115,0.29 0.031,0.406 -0.084,0.116 -0.44,0.474 -0.481,0.474 -0.042,0 -0.147,0.009 -0.22,-0.099 -0.073,-0.107 -0.746,-1.096 -0.698,-1.188 0.102,-0.196 0.346,-0.65 0.346,-0.837 0,-0.188 0.08,-0.699 0.143,-0.833 0.062,-0.134 0.335,-1.876 0.45,-1.992 0.115,-0.116 0.334,-0.25 0.345,-0.33 0.01,-0.081 -0.063,-0.384 -0.314,-0.563 -0.251,-0.179 -0.649,-0.446 -0.9,-0.384 -0.251,0.063 -0.772,0.831 -0.837,1.027 -0.048,0.144 0.666,1.234 0.614,1.448 -0.052,0.215 -0.645,1.169 -0.765,1.151 -0.121,-0.017 -0.215,-0.446 -0.215,-0.553 0,-0.108 0.037,-0.612 -0.026,-0.702 -0.063,-0.089 -0.251,-0.285 -0.324,-0.259 -0.074,0.027 -0.895,1.452 -0.884,1.577 0.01,0.125 0.041,0.473 -0.147,0.804 -0.188,0.33 -1.078,1.5 -1.13,1.742 -0.052,0.241 -0.136,0.83 -0.293,0.955 -0.157,0.125 -1.015,0.715 -1.203,1.001 -0.188,0.285 -2.197,3.242 -2.605,3.555 -0.408,0.312 -1.276,0.795 -1.967,0.92 0,0 -1.015,0.348 -1.276,0.544 -0.262,0.197 -1.287,1.715 -1.58,2.001 -0.293,0.286 -3.672,4.154 -3.829,4.288 -0.157,0.134 -0.743,0.893 -0.764,1.018 -0.021,0.125 0.314,1.453 0.324,1.613 0.011,0.161 -0.46,0.995 -0.638,0.995 -0.178,0 -0.607,-0.903 -0.638,-0.995 -0.031,-0.092 0.146,-0.657 -0.031,-0.765 -0.178,-0.107 -0.953,-0.116 -1.402,-0.446 -0.45,-0.331 -0.565,-0.512 -0.45,-0.715 0.303,-0.536 0.588,-0.103 0.91,-0.643 0.282,-0.473 1.726,-2.358 1.977,-2.894 0.251,-0.536 0.502,-0.902 0.9,-1.375 0.398,-0.474 2.26,-3.645 2.197,-3.939 -0.063,-0.295 0.147,-2.367 0.188,-2.492 0.042,-0.125 0.555,-2.198 0.712,-2.323 0.157,-0.125 0.92,-2.018 1.036,-2.188 0.115,-0.17 2.657,-3.796 2.95,-4.002 0.293,-0.205 2.082,-4.117 2.197,-4.314 0.115,-0.196 0.45,-0.571 0.9,-0.759 0.45,-0.188 0.638,-0.411 0.732,-0.75 0.094,-0.34 0.661,-2.644 0.796,-2.948 0.135,-0.304 1.266,-2.555 1.266,-2.555 l 2.604,2.082 c 0.199,0.143 0.429,0.393 0.523,0.589 0.095,0.197 0.084,0.492 0.429,0.733 0.346,0.241 1.371,1 1.517,1.116 0.147,0.116 0.272,0.179 0.325,0.438 0.052,0.259 0.083,0.705 -0.147,1.045 -0.23,0.339 -0.753,0.768 -0.879,1.027 -0.125,0.259 -0.293,0.652 -0.293,0.875 0,0.224 0.021,0.626 0.168,0.617 0.146,-0.009 1.077,-0.429 1.13,-0.617 0.052,-0.187 0.397,-1.804 0.46,-1.893 0.063,-0.089 0.921,-0.741 0.816,-0.911 -0.105,-0.17 -0.387,-0.411 -0.377,-0.688 0.011,-0.277 0.011,-0.527 0.137,-0.732 0.125,-0.206 0.313,-0.456 0.889,-0.224 0.556,0.439 1.403,0.004 1.482,-0.521 0.073,-0.479 -0.285,-0.903 -0.591,-1.278 -0.057,-0.07 -0.117,-0.161 -0.083,-0.244 0.026,-0.065 0.096,-0.097 0.161,-0.121 0.688,-0.255 1.375,-0.393 2.077,-0.183 0.272,0.081 0.652,0.508 0.819,0.279 0.068,-0.095 0.138,-0.445 0.213,-0.534 0.147,-0.176 0.424,-0.111 0.649,-0.149 0.454,-0.076 0.816,-0.614 1.256,-0.478 -0.04,0.235 0.193,0.473 0.429,0.437 0.235,-0.035 0.389,-0.33 0.283,-0.543 0.794,-0.281 1.617,0.394 2.459,0.38 0.117,-0.002 0.242,-0.017 0.346,0.037 0.143,0.075 0.196,0.247 0.269,0.39 0.429,0.828 1.683,0.794 2.315,1.479 0.14,0.151 0.248,0.35 0.224,0.554 -0.023,0.204 -0.219,0.393 -0.42,0.351 m -19.847,26.588 c 0.15,-0.06 0.537,-0.045 0.836,0.052 0.299,0.098 0.387,0.128 0.387,0.241 0,0.112 0.112,0.803 -0.485,0.871 -0.173,0.02 -0.324,-0.098 -0.412,-0.233 -0.088,-0.135 -0.345,-0.523 -0.38,-0.584 -0.063,-0.11 -0.095,-0.287 0.054,-0.347 m 1.747,6.506 c -0.163,-0.051 -0.432,0 -0.589,0.074 -0.157,0.074 -0.408,0.295 -0.737,0.275 -0.33,-0.02 -0.345,-0.55 -0.345,-0.55 l 2.267,-1.232 c 0.636,-0.047 1.055,0.15 1.11,0.257 0.104,0.199 0.278,0.444 0.325,0.631 0.039,0.156 -0.022,0.231 -0.054,0.291 -0.031,0.06 -0.361,0.045 -0.682,0.038 -0.161,-0.003 -0.327,0.115 -0.516,0.205 -0.277,0.132 -0.418,0.125 -0.779,0.011 m 0.395,-4.273 c 0.173,0.134 0.259,0.141 0.322,0.389 0.063,0.248 0.11,0.683 -0.157,0.77 -0.267,0.087 -0.395,-0.312 -0.628,-0.388 -0.266,-0.087 -0.941,-0.134 -0.941,-0.489 0,-0.121 0.102,-0.295 0.518,-0.335 0.416,-0.04 0.714,-0.081 0.886,0.053 m -1.906,0.861 c 0.055,0.178 -0.306,0.499 -0.314,0.714 -0.008,0.214 0.031,0.962 -0.204,1.145 -0.267,0.208 -1.083,0.814 -1.31,0.8 L 66.77,-8.073 c 0,0 0.439,0.016 0.549,0.016 0.11,0 0.117,0.141 0.408,0.1 0.29,-0.04 0.557,-0.154 0.871,-0.16 0.314,-0.007 0.612,-0.047 0.667,0.13 M 62.84,-11.39 c 0.142,-0.054 1.138,0.275 1.342,0.382 0.204,0.108 1.805,2.706 1.805,2.706 l 0.573,2.874 c -0.518,0.12 -0.694,-0.373 -0.772,-0.56 -0.079,-0.188 -0.366,-0.458 -0.57,-0.552 -0.204,-0.094 -0.368,0.022 -0.51,0.08 -0.116,0.102 -0.194,0.283 -0.313,0.309 -0.119,0.027 -0.683,-0.258 -0.801,-0.336 -0.138,-0.09 -0.369,-0.321 -0.416,-0.603 -0.047,-0.281 0.023,-0.361 0.031,-0.837 0.008,-0.476 -0.243,-0.569 -0.29,-0.777 -0.047,-0.208 0.392,-1.132 0.345,-1.36 -0.047,-0.228 -0.353,-0.623 -0.486,-0.938 -0.091,-0.214 -0.079,-0.335 0.062,-0.388 M 46.46,-48.72 c -0.032,0.051 -0.249,0.108 -0.312,0.047 -0.063,-0.06 -0.431,-0.348 -0.479,-0.368 -0.047,-0.02 -0.408,-0.074 -0.619,-0.074 -0.212,0 -0.314,0.047 -0.44,0.047 -0.125,0 -0.557,-0.047 -0.643,-0.449 -0.087,-0.402 0.102,-1.052 0.141,-1.186 0.039,-0.133 0.196,-0.381 0.432,-0.442 0.235,-0.06 0.588,-0.148 0.823,-0.234 0.401,-0.147 0.871,-0.556 0.801,-0.777 -0.028,-0.087 -0.071,-0.328 -0.11,-0.416 -0.039,-0.087 -0.071,-0.321 -0.079,-0.408 -0.007,-0.087 0.015,-0.215 0.118,-0.302 0.246,-0.205 0.989,0.09 1.062,0.822 0.007,0.074 -0.191,0.406 -0.193,0.616 -0.005,0.526 -0.06,1.304 -0.1,1.463 -0.033,0.133 -0.4,0.831 -0.4,1.012 0,0.18 0.067,0.542 -0.002,0.649 m -11.195,2.673 c -0.203,0.02 -0.44,-0.241 -0.502,-0.361 -0.063,-0.121 -0.393,-0.684 -0.393,-0.778 0,-0.093 -0.023,-0.335 0,-0.355 0.024,-0.02 0.366,-0.515 0.442,-0.529 0.076,-0.013 0.476,-0.053 0.555,0 0.078,0.054 0.259,0.121 0.408,0.496 0.149,0.375 0.125,0.543 0.118,0.697 -0.008,0.154 -0.283,0.797 -0.628,0.83 M 8.907,-52.841 c 0.005,-0.193 0.22,-0.438 0.512,-0.456 0.293,-0.018 1.445,0.054 1.863,0.438 0.418,0.384 0.481,0.866 0.648,1.045 0.168,0.178 0.764,0.839 0.942,1 0.178,0.161 1.681,2.19 2.459,2.564 0.177,0.085 0.47,0.04 0.674,0.174 0.204,0.134 0.33,0.272 0.34,0.424 0.011,0.152 -0.01,0.545 -0.083,0.688 -0.073,0.143 -0.534,0.804 -0.754,0.786 -0.219,-0.018 -0.512,-0.616 -0.648,-0.759 -0.136,-0.143 -0.335,-0.384 -0.502,-0.402 -0.168,-0.018 -0.22,-0.063 -0.367,0.169 -0.146,0.233 -0.583,1.593 -1.067,2.251 -0.781,1.064 -0.878,2.117 -1.433,2.215 -0.554,0.099 -0.882,-0.228 -1.161,-0.285 -0.757,-0.155 -1.081,-0.375 -1.392,-0.554 -0.529,-0.306 -2.065,-2.887 -2.092,-3.073 -0.072,-0.486 -0.073,-1.02 0.002,-1.199 0.076,-0.179 0.217,-0.377 0.458,-0.534 0.481,-0.312 2.406,-2.411 2.542,-2.527 0.136,-0.116 0.391,-0.379 0.304,-0.59 -0.329,-0.793 -1.256,-0.999 -1.245,-1.375 m 25.513,-30.55 c -0.302,0 -0.581,-0.047 -0.79,0 -0.208,0.046 -0.566,0.695 -0.984,0.718 -0.418,0.023 -0.65,0.232 -0.975,0.302 -0.325,0.069 -1.207,0.209 -1.486,0.209 -0.278,0 -0.534,0.255 -0.743,0.255 -0.209,0 -0.58,0.07 -0.719,0.186 -0.14,0.116 -0.604,0.185 -0.836,0.185 -0.232,0 -0.72,0.465 -1.045,0.465 -0.325,0 -0.58,-0.07 -0.743,-0.14 -0.162,-0.069 -0.533,-0.185 -0.626,-0.139 -0.093,0.047 -0.604,0.232 -0.906,0.325 -0.301,0.093 -0.673,0.395 -0.673,0.604 0,0.209 0.488,0.464 0.697,0.464 0.208,0 0.534,-0.232 0.534,-0.371 0,-0.14 -0.163,-0.093 -0.163,-0.256 0,-0.162 0.186,-0.348 0.418,-0.348 0.232,0 0.441,0.046 0.603,0.116 0.163,0.07 0.279,0.232 0.418,0.232 0.14,0 0.279,0.209 0.279,0.325 0,0.116 -0.163,0.163 -0.279,0.186 -0.116,0.023 -0.116,0.302 -0.232,0.441 -0.116,0.139 -0.441,0.186 -0.696,0.232 -0.256,0.047 -0.557,0.441 -0.766,0.441 h -1.068 c -0.209,0 -0.232,0.14 -0.232,0.256 0,0.116 -0.07,0.417 -0.279,0.673 -0.209,0.255 -0.557,0.418 -0.789,0.441 -0.232,0.023 -0.511,0.325 -0.604,0.418 -0.093,0.093 -0.627,0.139 -0.789,0.093 -0.163,-0.047 -0.209,-0.256 0.046,-0.395 0.256,-0.139 0.325,-0.302 0.256,-0.325 -0.07,-0.023 -0.618,0.054 -0.773,0.186 -0.154,0.132 -0.759,0 -0.968,0 -0.209,0 -0.674,0.441 -0.79,0.58 -0.116,0.139 -0.232,0.696 -0.348,0.905 -0.116,0.209 -0.696,0.859 -1.021,1.161 -0.325,0.302 -0.79,1.323 -0.882,1.509 -0.093,0.186 -0.511,0.65 -0.674,0.859 -0.162,0.209 -0.789,1.671 -0.928,1.834 -0.139,0.162 -1.648,1.462 -2.098,1.622 -0.45,0.16 -1.825,0.815 -2.22,1.048 -0.395,0.232 -0.859,0.975 -1.114,1.346 -0.256,0.371 -1.091,1.37 -1.579,1.684 -0.487,0.315 -2.507,1.427 -2.809,1.589 -0.302,0.163 -1.903,1.37 -2.043,1.509 -0.139,0.139 -0.557,1.114 -0.743,1.37 -0.185,0.255 -1.485,1.81 -1.973,2.298 -0.487,0.487 -2.321,1.904 -2.53,1.973 -0.209,0.07 -0.882,0.047 -1.022,0.093 -0.139,0.046 -0.858,0.882 -1.012,1.068 -0.154,0.186 -0.125,0.394 -0.264,0.673 -0.14,0.279 -1.95,2.739 -2.043,2.832 -0.093,0.093 -0.047,0.372 -0.163,0.464 -0.116,0.093 -0.859,0.604 -0.998,0.72 -0.139,0.116 -0.139,0.534 -0.232,0.72 -0.093,0.186 -0.464,1.021 -0.604,1.161 -0.139,0.139 -0.441,0.046 -0.58,0 -0.139,-0.047 -0.395,-0.395 -0.464,-0.483 -0.07,-0.088 -0.302,-0.051 -0.418,-0.005 -0.116,0.046 -0.256,-0.232 -0.348,-0.371 -0.093,-0.14 -0.393,-0.312 -0.465,-0.581 -0.038,-0.146 -0.087,-0.801 0,-1.027 0.087,-0.226 3.726,-9.419 3.744,-9.541 0.017,-0.122 4.962,-6.651 4.962,-6.651 0,0 3.935,-4.945 4.422,-5.484 0.488,-0.54 2.02,-1.794 2.612,-2.42 0.592,-0.627 1.619,-1.324 1.897,-1.585 0.279,-0.261 19.9,-9.238 28.865,-9.631 l -0.156,2.471 c -0.372,0.093 -0.766,0.511 -1.068,0.511 m 42.687,14.686 c -0.104,0.052 -0.122,0.313 -0.261,0.383 -0.139,0.069 -0.644,-0.035 -0.784,-0.105 -0.139,-0.069 -0.592,-0.487 -0.731,-0.487 -0.139,0 -0.331,0.278 -0.331,0.4 0,0.122 0.14,0.401 0.14,0.575 0,0.174 0.174,0.975 0.278,1.114 0.105,0.139 0.052,0.314 -0.209,0.296 -0.261,-0.017 -0.505,-0.191 -0.557,-0.296 -0.052,-0.104 -0.331,-0.244 -0.505,-0.348 -0.174,-0.105 -0.418,-0.731 -0.539,-0.888 -0.122,-0.157 -0.714,-0.557 -0.906,-0.731 -0.191,-0.174 -0.661,-0.47 -0.729,-0.505 -0.067,-0.035 -0.35,0.174 -0.35,0.313 0,0.14 0.174,0.47 0.296,0.592 0.122,0.122 0.017,0.331 -0.105,0.296 -0.122,-0.035 -0.522,-0.104 -0.661,-0.191 -0.14,-0.087 -0.714,-0.418 -0.784,-0.557 -0.07,-0.14 -0.365,-0.331 -0.453,-0.331 -0.087,0 -0.104,0.191 -0.174,0.313 -0.069,0.122 -0.087,0.784 -0.052,0.905 0.035,0.122 0.226,0.175 0.226,0.296 0,0.122 -0.296,0.175 -0.417,0.14 -0.122,-0.035 -0.418,-0.296 -0.54,-0.366 -0.122,-0.07 -0.192,0.052 -0.192,0.122 0,0.07 -0.33,-0.052 -0.452,-0.139 -0.122,-0.087 -0.383,-0.488 -0.557,-0.523 -0.175,-0.034 -0.227,0.105 -0.227,0.227 0,0.122 -0.052,0.261 -0.174,0.278 -0.122,0.018 -0.279,0.209 -0.279,0.209 0,0 0.157,0.035 0.262,0.052 0.104,0.018 0.313,0.157 0.47,0.157 0.156,0 0.313,0.07 0.365,0.139 0.053,0.07 -0.034,0.296 -0.156,0.471 -0.122,0.174 -0.401,0.139 -0.47,0.261 -0.07,0.122 -0.349,0.226 -0.471,0.313 -0.121,0.087 -0.261,0.279 -0.104,0.296 0.157,0.017 0.557,0.331 0.679,0.47 0.122,0.139 0.017,0.314 -0.226,0.383 -0.244,0.07 -0.766,0.453 -1.045,0.627 -0.278,0.174 -0.609,0.592 -0.644,0.836 -0.035,0.243 -0.139,0.574 -0.244,0.574 -0.104,0 -0.331,-0.574 -0.383,-0.94 -0.052,-0.366 -0.557,-0.957 -0.818,-1.271 -0.261,-0.313 -1.881,-1.323 -2.072,-1.41 -0.192,-0.087 -0.018,-0.261 0.174,-0.331 0.192,-0.07 0.557,-0.035 0.749,0.035 0.191,0.069 0.243,-0.052 0.266,-0.157 0.023,-0.104 -0.423,-0.54 -0.632,-0.731 -0.209,-0.192 -0.731,-0.575 -0.853,-0.609 -0.122,-0.035 0.139,-0.296 0.278,-0.366 0.14,-0.07 0.662,-0.035 0.819,0.122 0.157,0.156 0.331,0.261 0.383,0.139 0.052,-0.122 -0.279,-0.296 -0.453,-0.487 -0.174,-0.192 -0.644,-0.61 -0.836,-0.749 -0.191,-0.139 -0.348,-0.261 -0.191,-0.348 0.157,-0.087 0.662,0.017 0.662,0.017 0,0 -0.244,-0.47 -0.436,-0.644 -0.191,-0.174 -0.574,-0.401 -0.94,-0.923 -0.366,-0.522 -1.045,-1.811 -1.045,-1.811 -0.243,-0.069 -0.992,0.07 -1.201,0.07 -0.209,0 -0.94,-0.087 -1.288,-0.035 -0.349,0.052 -0.349,0.314 -0.192,0.435 0.157,0.122 0.505,0.175 0.644,0.175 0.14,0 0.209,-0.14 0.279,-0.087 0.07,0.052 0.174,0.261 0.122,0.33 -0.052,0.07 -0.488,0.122 -0.644,0.157 -0.157,0.035 -0.888,0.087 -0.888,0.157 0,0.069 0.47,0.122 0.592,0.156 0.122,0.035 0.104,0.209 0,0.365 -0.105,0.156 -0.105,0.436 -0.174,0.489 -0.07,0.052 -0.209,-0.105 -0.331,-0.175 -0.122,-0.069 -0.418,0.175 -0.54,0.227 -0.122,0.052 -0.418,0.122 -0.575,0.244 -0.156,0.121 -0.452,0.104 -0.591,0.348 -0.14,0.244 -0.262,0.87 -0.349,1.01 -0.087,0.139 -0.243,-0.174 -0.365,-0.436 -0.122,-0.261 -0.244,-0.592 -0.366,-0.957 -0.122,-0.366 -0.366,-0.575 -0.522,-0.627 -0.157,-0.052 -0.244,-0.157 -0.261,-0.296 -0.018,-0.139 -0.157,-0.226 -0.314,-0.4 -0.157,-0.175 -0.348,-0.488 -0.035,-0.488 0.314,0 0.47,0.192 0.592,0.261 0.122,0.07 0.244,0.035 0.244,-0.035 0,-0.069 -0.139,-0.296 -0.435,-0.452 -0.296,-0.157 -0.714,-0.174 -0.836,-0.174 -0.122,0 -0.104,-0.262 0.174,-0.383 0.279,-0.122 0.453,0.052 0.575,0.104 0.122,0.052 0.348,0.017 0.348,0.017 0,-0.365 -0.226,-0.748 -0.453,-0.853 -0.226,-0.104 -0.505,-0.035 -0.505,-0.174 0,-0.139 -0.087,-0.365 -0.243,-0.365 -0.157,0 -0.14,-0.314 0.034,-0.314 0.175,0 0.296,0.331 0.401,0.331 0.104,0 0.313,-0.052 0.313,-0.244 0,-0.191 -0.748,-1.497 -0.905,-1.671 -0.157,-0.174 -0.731,-0.157 -1.027,-0.139 -0.296,0.017 -0.627,0.226 -0.679,0.139 -0.053,-0.087 0.069,-0.644 0.139,-1.045 0.07,-0.4 0,-0.679 -0.331,-0.975 -0.331,-0.296 -0.888,-0.261 -1.097,-0.261 -0.209,0 -0.383,-0.261 -0.574,-0.331 -0.192,-0.069 -0.157,0.07 -0.348,0.035 -0.192,-0.035 -0.262,-0.279 -0.384,-0.279 -0.121,0 -0.417,-0.069 -0.504,-0.104 -0.088,-0.035 -0.244,0.104 -0.244,0.104 0.296,0.209 0.592,0.244 0.748,0.349 0.157,0.104 0.227,0.174 0.227,0.296 0,0.122 -0.209,0.278 -0.331,0.313 -0.122,0.035 -0.418,-0.017 -0.592,-0.052 -0.174,-0.035 -0.557,-0.314 -0.958,-0.401 -0.4,-0.087 -1.218,-0.122 -1.479,-0.122 -0.262,0 -0.697,0.053 -0.697,0.053 0,0 0.679,0.435 0.731,0.609 0.053,0.174 0.087,0.401 -0.052,0.383 -0.139,-0.017 -1.184,-0.191 -1.671,-0.244 -0.488,-0.052 -1.654,-0.243 -2.194,-0.243 -0.54,0 -1.219,0.243 -1.367,0.333 -0.148,0.09 -0.374,0.119 -0.566,0.119 -0.191,0 -0.801,0.105 -1.114,0.227 -0.313,0.121 -2.107,0.766 -2.368,0.783 -0.261,0.018 -0.296,-0.087 -0.209,-0.157 0.087,-0.069 1.271,-1.236 1.62,-1.514 0.348,-0.279 0.609,-1.097 0.609,-1.097 -0.296,-0.105 -0.105,-0.296 0.035,-0.418 0.139,-0.122 0.156,-0.017 0.274,0.107 0.118,0.123 0.265,0.032 0.405,-0.194 0.139,-0.226 -0.087,-0.366 0,-0.505 0.087,-0.139 0.052,-0.296 0,-0.435 -0.053,-0.14 -0.174,-0.888 -0.053,-0.94 0.122,-0.053 0.453,0.069 0.558,0.174 0.104,0.104 0.557,0.226 0.754,0.156 0.197,-0.069 0.395,-0.522 0.395,-0.766 0,-0.243 -0.174,-0.557 -0.34,-0.609 -0.165,-0.052 -0.374,0.052 -0.426,0.139 -0.053,0.087 -0.366,0.174 -0.523,0.139 -0.156,-0.034 -0.191,-0.435 -0.104,-0.557 0.087,-0.122 0.487,-0.122 0.592,-0.191 0.104,-0.07 -0.052,-0.261 -0.157,-0.314 -0.104,-0.052 -0.453,0.035 -0.627,-0.208 -0.174,-0.244 -0.122,-0.488 -0.156,-0.61 -0.035,-0.122 -0.331,-0.104 -0.261,-0.191 0.069,-0.087 0.853,-0.018 0.94,0.034 0.087,0.053 0.191,0.366 0.313,0.436 0.122,0.069 0.47,-0.07 0.54,-0.035 0.069,0.035 0.191,0.226 0.313,0.278 0.122,0.053 0.54,0.296 0.766,0.401 0.227,0.104 0.836,0.017 0.958,0 0.122,-0.018 0.557,-0.557 0.557,-0.714 0,-0.157 -0.157,-0.226 -0.087,-0.313 0.07,-0.087 0.191,-0.296 0.035,-0.523 -0.157,-0.226 -0.401,-0.313 -0.54,-0.33 -0.139,-0.018 -0.296,0.121 -0.296,0.208 0,0.088 -0.07,0.175 -0.174,0.105 -0.105,-0.07 -0.47,-0.279 -0.679,-0.383 -0.209,-0.105 -0.488,-0.122 -0.592,-0.087 -0.104,0.035 -0.07,0.226 -0.07,0.226 0,0 -0.992,-0.348 -1.41,-0.383 -0.418,-0.035 -1.358,-0.104 -1.358,-0.104 0,0 0.853,-0.279 1.201,-0.436 0.079,-0.035 0.162,-0.093 0.242,-0.156 13.333,0.166 25.523,5.048 34.988,13.06 -0.12,0 -0.276,0.095 -0.373,-0.002 -0.105,-0.105 -0.173,-0.126 -0.252,-0.002 -0.079,0.124 -0.201,0.211 -0.306,0.141 -0.104,-0.07 -0.069,-0.244 -0.156,-0.348 -0.087,-0.105 -0.209,-0.228 -0.383,-0.141 -0.174,0.089 -0.366,0.141 -0.54,0.21 -0.174,0.07 -0.348,0.262 -0.47,0.366 -0.122,0.105 -0.284,0.311 -0.261,0.453 0.022,0.137 0.139,0.574 0.331,0.748 0.191,0.175 0.383,0.244 0.452,0.505 0.07,0.261 0.174,0.505 0.401,0.644 0.226,0.14 0.661,0.122 0.818,0.262 0.157,0.139 0.383,0.348 0.627,0.435 0.244,0.087 0.574,0.418 0.853,0.522 0.278,0.105 0.731,0.227 0.749,0.157 0.017,-0.07 -0.175,-0.296 -0.279,-0.54 -0.105,-0.244 -0.313,-0.885 -0.331,-1.086 -0.017,-0.202 0.209,-0.08 0.314,-0.15 0.104,-0.07 0.087,-0.174 0.017,-0.296 -0.07,-0.122 -0.052,-0.505 0,-0.609 0.027,-0.054 0.007,-0.148 -0.043,-0.257 0.453,0.405 0.893,0.823 1.332,1.242 -0.235,-0.082 -0.665,0.027 -0.732,0.094 -0.07,0.07 -0.157,0.47 -0.07,0.679 0.088,0.209 0.627,0.662 0.958,0.923 0.331,0.261 0.662,0.435 0.871,0.557 0.209,0.122 0.278,0.331 0.313,0.488 0.035,0.156 -0.4,0.296 -0.505,0.348 M 50.19,-76.227 c 0.018,0.14 0.557,0.087 0.749,0.087 0.191,0 0.104,0.262 0.209,0.418 0.104,0.157 0.261,0.279 0.271,0.47 0.01,0.192 0.112,0.383 0.112,0.557 0,0.175 -0.174,0.314 -0.418,0.436 -0.244,0.122 -0.557,0.035 -0.679,-0.14 -0.122,-0.176 -0.314,-0.156 -0.456,-0.104 -0.142,0.052 -0.519,0 -0.641,0 -0.122,0 -0.191,0.122 -0.104,0.209 0.087,0.087 0.243,0.383 0.156,0.479 -0.087,0.096 -0.627,0.061 -0.923,0 -0.296,-0.061 -1.044,-0.218 -1.619,-0.183 -0.574,0.035 -0.975,0.191 -1.149,0.261 -0.174,0.07 -0.331,0.209 -0.546,0.226 -0.216,0.018 -0.359,-0.383 -0.359,-0.609 0,-0.453 0.348,-0.522 0.505,-0.54 0.156,-0.017 0.278,-0.296 0.383,-0.487 0.104,-0.192 -0.018,-0.688 -0.018,-0.688 0,0 0.836,0.026 1.045,0 0.209,-0.025 0.453,-0.131 0.453,-0.235 0,-0.104 -0.14,-0.191 -0.157,-0.279 -0.017,-0.087 0.035,-0.348 -0.104,-0.33 -0.14,0.017 -0.122,0.191 -0.279,0.226 -0.157,0.035 -0.313,-0.035 -0.401,-0.122 -0.087,-0.087 -0.052,-0.47 -0.017,-0.557 0.035,-0.087 0.488,-0.035 0.592,-0.035 0.105,0 0.139,-0.244 0.226,-0.261 0.087,-0.017 0.296,0.07 0.314,0.157 0.017,0.087 0.156,0.104 0.313,0.226 0.157,0.122 0.279,0.122 0.279,0.122 0,-0.313 0.069,-0.54 0.235,-0.784 0.165,-0.243 0.078,-0.452 0.235,-0.452 0.157,0 0.435,0.104 0.574,0.122 0.14,0.017 0.244,0.122 0.296,0.278 0.053,0.157 0.296,0.331 0.453,0.383 0.157,0.052 0.035,0.209 -0.087,0.296 -0.122,0.087 -0.279,0.314 -0.279,0.383 0,0.07 0.366,0.087 0.523,0.105 0.156,0.017 0.296,0.226 0.313,0.365 m -60.283,46.99 c -0.203,-0.212 -0.586,-0.731 -0.361,-0.943 0.225,-0.211 0.541,-0.365 0.541,-0.365 l 0.462,0.221 0.146,0.019 c 0,0 0.147,-0.115 0.147,-0.182 0,-0.068 0.005,-2.232 0.098,-2.328 0.093,-0.096 1.179,-1.775 1.494,-1.89 0.355,-0.101 1.336,-0.377 1.454,-0.312 0.033,0.246 -0.422,0.51 -0.354,0.875 0.068,0.366 0.315,0.404 0.248,1.164 -0.068,0.76 -0.327,0.981 0,1.221 0.326,0.241 0.698,0.686 1.104,0.671 0.194,-0.007 0.152,-0.202 0.371,-0.274 0.106,-0.035 0.496,-0.291 0.868,-0.06 0.372,0.231 0.732,1.067 1.318,1.058 0.586,-0.01 0.473,-0.808 0.574,-1.01 0.102,-0.202 0.496,-0.702 0.44,-1.183 -0.057,-0.481 1.543,-2.029 1.622,-2.106 0.079,-0.077 0.293,-0.135 0.428,-0.202 0.135,-0.068 2.028,-2.039 2.028,-2.251 0,-0.211 -0.079,-0.933 0.439,-1.327 0.518,-0.394 1.172,-0.5 1.464,-0.471 0.293,0.029 1.735,0.817 1.983,0.846 0.248,0.029 0.62,0.154 0.822,-0.096 0.203,-0.25 0.327,-0.433 0.372,-0.673 0.045,-0.241 0.214,-0.673 0.654,-0.683 0.439,-0.01 0.664,0.048 0.991,0.327 0.327,0.279 1.295,1.106 1.386,1.587 0.09,0.481 -0.338,1.769 -0.226,1.904 0.113,0.135 0.946,1.991 1.183,2.164 0.237,0.173 1.926,1.616 1.983,1.645 0.056,0.028 0.124,0.04 0.191,0.04 0.068,0 0.245,-0.043 0.304,-0.122 0.06,-0.079 0.271,-0.281 0.338,-0.303 0.068,-0.022 1.31,-0.043 1.513,0.043 0.202,0.087 1.292,0.721 1.368,0.721 0.076,0 0.237,0.044 0.262,-0.093 0.026,-0.137 -0.11,-0.549 0.338,-0.505 0.448,0.043 0.768,0.755 1.282,0.702 0.102,-0.01 1.063,-0.274 1.388,-0.212 0.383,0.074 0.583,0.274 0.659,0.462 0.076,0.187 0.433,0.536 0.997,1.421 0,0 0.211,0.115 0.38,0.036 0.169,-0.079 0.313,-0.108 0.313,-0.245 0,-0.137 -0.135,-0.707 -0.119,-0.851 0.017,-0.145 -0.008,-0.606 0.406,-0.859 0.414,-0.252 1.411,-0.591 1.546,-0.692 0.135,-0.101 0.439,-0.289 0.516,-0.296 0.076,-0.007 2.053,-0.837 2.078,-0.88 0.025,-0.043 0.186,-0.317 0.237,-0.426 0.05,-0.108 0.76,-1.882 0.802,-1.954 0.042,-0.072 0.085,-0.296 0.456,-0.31 0.372,-0.015 0.719,-0.015 0.854,0.101 0.135,0.115 0.574,0.815 0.929,0.815 0.355,0 0.6,-0.073 0.718,-0.217 0.119,-0.144 0.583,-0.656 0.98,-0.663 0.397,-0.008 0.803,0.252 1.217,0.288 0.414,0.036 1.056,-0.007 1.394,0.267 0.338,0.274 0.659,0.692 0.524,0.938 -0.135,0.245 -0.685,1.024 -0.896,1.161 -0.211,0.137 -1.115,0.281 -1.149,0.613 -0.034,0.332 0.608,0.88 0.718,0.923 0.313,0.123 1.479,-0.043 1.631,-0.101 0.152,-0.057 0.836,-0.49 1.115,-0.49 0.279,0 0.6,-0.144 0.904,0.137 0.304,0.281 0.651,0.793 0.583,1.003 -0.067,0.209 -0.76,1.168 -0.65,1.514 0.109,0.347 0.507,0.541 0.49,0.852 -0.017,0.31 -0.575,0.952 -0.642,1.002 -0.068,0.051 -0.279,0.087 -0.414,0.152 -0.136,0.065 -1.319,1.673 -1.53,1.817 -0.211,0.145 -0.887,0.202 -1.081,0.592 -0.194,0.389 -0.786,1.594 -0.617,1.854 0.169,0.259 1.073,0.699 1.073,0.699 0,0 0.549,-0.043 0.693,0.079 0.143,0.123 0.465,0.275 0.389,0.563 -0.077,0.289 -0.398,0.801 -0.702,0.952 -0.304,0.152 -0.65,0.101 -0.76,0.181 -0.11,0.079 -1.191,1.464 -1.191,1.464 0,0 0.768,2.063 0.794,2.2 0.025,0.137 0.078,0.588 0.236,0.786 0.237,0.296 0.593,0.367 0.693,0.368 0.128,0.001 0.372,-0.253 0.718,-0.238 0.153,0.006 0.127,0.425 0.271,0.88 0.143,0.454 0.163,1.834 0.163,1.834 0,0 1.501,0.885 1.628,0.914 0.127,0.029 0.363,0.188 0.633,0 0.271,-0.187 1.233,-0.498 1.376,-0.411 0.144,0.086 0.45,0.238 0.559,0.245 0.211,0.015 1.284,-0.728 1.377,-0.728 0.093,0 2.07,1.008 2.121,1.029 0.051,0.022 0.279,0.673 0.693,0.68 0.414,0.007 0.617,-0.007 0.625,0.079 0.009,0.087 -0.355,0.621 -0.456,0.671 -0.102,0.051 -0.997,0.282 -1.124,0.39 -0.127,0.108 0.017,0.678 -0.228,0.858 -0.245,0.18 -1.808,1.299 -1.842,1.457 -0.034,0.159 0.089,0.563 0.093,0.685 0.009,0.26 -0.124,1.813 -0.209,1.986 -0.084,0.173 -0.479,1 -0.453,1.051 0.025,0.05 0.206,0.671 0.206,0.902 0,0.231 0.684,2.034 0.667,2.12 -0.017,0.087 -0.608,0.751 -0.583,0.852 0.026,0.101 0.034,0.202 0.127,0.274 0.093,0.072 0.406,0.288 0.524,0.281 0.118,-0.007 0.498,-0.238 0.718,-0.195 0.22,0.044 0.617,0.065 0.845,0.245 0.228,0.181 2.315,1.919 2.509,1.926 0.195,0.008 0.439,-0.015 0.752,-0.05 0.617,-0.069 2.324,-0.505 2.433,-0.512 0.11,-0.007 1.441,0.479 1.521,0.476 0.178,-0.007 2.153,-0.297 2.246,-0.355 0.093,-0.057 0.931,-0.641 1.066,-0.633 0.135,0.007 1.335,-0.094 1.605,-0.181 0.271,-0.086 2.028,-0.865 2.214,-0.988 0.186,-0.123 2.095,-1.435 2.239,-1.479 0.144,-0.043 0.137,-0.065 0.346,-0.101 0.254,-0.043 0.828,0.051 0.904,0 0.076,-0.05 0.761,-0.771 0.82,-0.764 0.059,0.007 0.296,-0.043 0.363,0.101 0.068,0.144 0.245,0.505 0.245,0.599 0,0.093 0.203,0.98 0.203,0.98 0,0 -1.622,2.056 -1.774,2.193 -0.152,0.137 -0.656,0.562 -0.963,0.664 -0.482,0.159 -1.113,0.268 -1.383,0.549 -0.271,0.282 -0.738,1.543 -0.924,1.651 -0.186,0.108 -1.208,0.685 -1.267,0.801 -0.059,0.115 -0.304,0.542 -0.337,0.573 -0.542,0.5 -0.803,1.462 -0.669,1.792 0.026,0.063 0.465,0.498 0.541,0.52 0.076,0.021 0.608,0.101 0.862,0.296 0.253,0.194 1.563,1.24 1.656,1.233 0.093,-0.007 0.295,0.029 0.388,-0.058 0.093,-0.086 0.355,-0.505 0.499,-0.577 0.144,-0.072 0.714,-0.039 1.008,0.057 0.169,0.055 0.842,0.479 0.935,0.407 0.093,-0.072 0.093,-0.565 -0.118,-0.565 -0.211,0 -0.44,-0.014 -0.431,-0.144 0.008,-0.13 0.177,-0.281 0.608,-0.455 0.082,-0.032 1.12,-0.354 1.369,-0.223 0.116,0.061 0.174,0.191 0.16,0.31 -0.033,0.308 -0.185,0.772 -0.076,0.757 0.11,-0.014 0.558,-0.432 0.541,-0.526 -0.017,-0.094 -0.143,-0.469 -0.034,-0.548 0.11,-0.08 0.254,-0.224 0.381,-0.21 0.126,0.015 0.554,0.044 0.664,-0.021 0.11,-0.065 0.535,-0.281 0.856,-0.577 0.321,-0.296 2.493,-1.363 3.16,-1.58 0.668,-0.216 1.614,-0.339 1.859,-0.389 0.245,-0.051 0.862,-0.181 0.963,0.021 0.101,0.202 -0.327,0.409 -0.597,0.496 -0.131,0.042 -0.561,0.15 -0.527,0.273 0.017,0.061 0.524,-0.062 0.626,-0.084 0.101,-0.022 0.27,-0.036 0.321,0.073 0.05,0.108 -0.152,0.332 -0.381,0.433 -0.127,0.056 -0.726,0.353 -0.701,0.468 0,0.08 0.493,-0.045 0.516,0.065 0.027,0.133 -0.305,0.463 -0.44,0.564 -0.136,0.101 -0.963,0.527 -0.963,0.527 l 0.051,0.431 -1.403,0.635 c 0,0 -2.172,1.116 -2.332,1.132 -0.354,0.036 -0.954,-0.288 -1.25,-0.288 -0.296,0 -0.811,0.173 -0.997,0.187 -0.186,0.015 -0.651,-0.028 -0.819,0.058 -0.169,0.087 -0.744,0.729 -0.972,0.851 -0.228,0.123 -0.608,0.296 -0.701,0.411 -0.093,0.116 -0.233,0.537 -0.305,0.657 -0.141,0.234 -0.633,1.19 -0.844,1.406 -0.212,0.217 -0.592,0.44 -0.871,0.585 -0.278,0.144 -0.416,0.327 -0.447,0.447 -0.089,0.339 -0.288,0.873 -0.296,0.966 -0.009,0.094 0.017,0.173 0.11,0.238 0.092,0.066 0.431,0.282 0.456,0.397 0.025,0.115 -0.346,0.873 -0.186,1.197 l -1.354,3.085 -20.954,1.847 c 0,0 -3.571,-2.126 -3.858,-2.27 -0.287,-0.144 -1.571,-0.346 -1.842,-0.476 -0.27,-0.13 -0.65,-0.548 -0.701,-0.613 -0.051,-0.065 -0.213,-0.233 -0.448,-0.31 -0.371,-0.123 -0.861,-0.007 -0.87,-0.274 -0.008,-0.267 0.511,-0.332 0.72,-0.318 0.209,0.015 0.792,0.072 1.037,0.224 0.245,0.151 0.744,0.411 0.989,0.454 0.245,0.044 2.191,0.178 2.357,-0.151 -0.004,-0.094 -0.11,-0.181 0.152,-0.274 0.262,-0.094 1.439,0.085 1.768,0.034 0.468,-0.073 3.884,-0.59 3.884,-0.59 l 1.183,-1.788 1.149,-4.506 c 0,0 -0.642,-0.02 -0.968,-0.116 C 40.498,10.454 39.495,9.925 39.293,9.839 39.09,9.752 38.955,9.685 38.718,9.675 c -0.237,-0.009 -1.07,0.01 -1.138,0.039 -0.067,0.028 -0.225,0.115 -0.101,0.24 0.124,0.125 0.288,0.194 0.27,0.26 -0.071,0.26 -1.104,0.625 -1.363,0.625 -0.259,0 -0.45,-0.019 -0.619,-0.096 -0.169,-0.077 -1.054,-0.231 -1.451,-0.224 -0.397,0.007 -0.6,-0.195 -0.633,-0.339 C 33.649,10.036 32.864,8.594 32.855,8.478 32.838,8.26 32.871,7.872 32.821,7.836 32.77,7.8 30.91,6.739 30.337,7.028 30.208,7.093 30.003,7.114 29.652,7.172 29.479,7.201 29.078,6.898 29.34,6.732 c 0.262,-0.166 0.598,-0.463 0.912,-0.476 0.516,-0.022 1.31,0.188 1.707,0.188 0.397,0 0.664,-0.386 0.674,-0.673 C 32.565,5.237 27.126,3.111 26.881,3.039 26.636,2.967 24.954,3.039 24.535,3.001 24.333,2.982 21.854,2.231 21.66,2.116 21.466,2 20.333,1.156 20.207,1.142 20.08,1.128 19.65,1.308 19.286,1.178 18.249,0.808 15.991,1.135 15.991,1.135 c 0,0 -1.529,0.779 -1.867,0.822 C 13.786,2 13.439,2.022 13.211,1.935 12.983,1.849 11.707,1.092 11.462,0.998 11.217,0.904 9.967,0.291 9.781,0.255 9.595,0.219 7.348,-0.207 6.976,-0.329 6.604,-0.452 4.036,-1.671 3.748,-1.736 3.461,-1.801 1.273,-2.479 1.155,-2.558 1.036,-2.638 -0.467,-4.08 -0.467,-4.167 c 0,-0.086 0.076,-0.808 -0.093,-0.952 -0.169,-0.144 -3.87,-2.683 -3.929,-2.741 -0.059,-0.058 -2.332,-2.64 -2.425,-2.705 -0.093,-0.065 -4.03,-2.077 -4.19,-2.156 -0.161,-0.08 -3.338,-7.697 -3.338,-7.697 l 0.836,-3.751 c 0,0 1.282,-1.99 2.566,-1.779 0,0 1.149,-3.077 0.947,-3.289" />
      </g>
      <g
         transform="matrix(0.34482714,0,0,-0.33336313,157.9537,74.342975)"
         id="g90">
        <path
           inkscape:connector-curvature="0"
           id="path92"
           style="fill:#000000;fill-opacity:1;fill-rule:nonzero;stroke:none"
           d="M 0,0 C 0.689,0.166 1.337,0.225 1.903,0.212 0.877,-1.252 0.143,-2.729 -0.248,-4.113 -2.478,-5.384 -4.504,-6.903 -6.314,-8.667 -4.504,-5.562 -2.39,-2.656 0,0 Z M 9.114,8.023 C 9.025,7.524 8.979,7.068 8.967,6.668 7.898,6.042 6.83,5.293 5.799,4.428 4.767,3.562 3.845,2.641 3.042,1.696 2.648,1.754 2.192,1.788 1.687,1.788 v 0 c 2.274,2.3 4.761,4.386 7.427,6.235 m 81.671,-40.269 c -0.696,2.097 -1.601,4.154 -2.714,6.167 0.443,1.762 0.736,3.476 0.888,5.137 v 0 c 1.004,-3.628 1.635,-7.408 1.826,-11.304 z M 74.516,-50.518 c 2.866,3.404 5.405,6.894 7.509,10.407 2.423,4.047 4.236,8.023 5.422,11.824 1.039,-2.091 1.853,-4.226 2.428,-6.402 0.389,-1.47 0.643,-2.876 0.801,-4.208 v 0 c -0.758,-9.748 -4.205,-18.749 -9.606,-26.264 -0.327,3.972 -2.521,8.866 -6.554,14.643 M 16.418,-81.91 v 10e-4 c 1.649,-0.135 3.374,-0.142 5.171,-0.011 1.771,-1.429 3.621,-2.661 5.544,-3.702 -3.739,0.853 -7.328,2.101 -10.715,3.712 M 1.14,-9.955 c 0.752,-0.534 1.701,-0.833 2.791,-0.901 -1.09,-3.643 -2.953,-11.265 -3.053,-20.956 -4.003,-0.103 -7.312,0.973 -9.61,3.168 2.454,8.302 6.489,14.368 9.872,18.689 M 19.037,6.351 C 20.906,4.125 18.472,-1.247 13.829,-5.143 9.186,-9.039 3.474,-10.502 1.606,-8.276 c -1.869,2.227 0.565,7.598 5.208,11.494 4.643,3.896 10.355,5.36 12.223,3.133 m 37.998,7.616 c -1.119,0.225 -2.262,0.42 -3.449,0.555 -4.324,0.504 -8.299,0.488 -11.956,0.138 -0.901,1.076 -2.082,1.955 -3.518,2.617 0.208,0.003 0.414,0.016 0.622,0.016 6.439,0 12.604,-1.181 18.301,-3.326 z m 4.426,-49.085 c -1.752,1.84 -3.519,3.589 -5.287,5.28 3.516,4.223 6.445,8.588 8.674,12.976 1.497,2.95 2.622,5.809 3.388,8.549 1.66,-1.035 3.312,-2.154 4.945,-3.389 5.814,-4.533 10.219,-9.417 13.193,-14.589 -1.109,-4.129 -3.013,-8.515 -5.704,-13.009 -1.997,-3.334 -4.395,-6.648 -7.098,-9.887 -3.096,4.243 -7.129,8.934 -12.111,14.069 M 36.348,-56.32 c -1.478,2.005 -2.865,4.007 -4.198,6.001 4.146,2.476 8.255,5.382 12.232,8.719 l 0.054,0.045 c 3.974,3.334 7.546,6.873 10.702,10.523 1.734,-1.66 3.467,-3.376 5.185,-5.181 5.074,-5.23 9.145,-9.967 12.218,-14.203 -3.365,-3.89 -7.183,-7.653 -11.372,-11.168 l -0.055,-0.046 c -4.162,-3.492 -8.499,-6.581 -12.882,-9.206 -3.643,3.765 -7.608,8.602 -11.884,14.516 m -19.833,-1.097 c 4.707,1.433 9.512,3.558 14.279,6.285 1.358,-2.033 2.772,-4.075 4.279,-6.119 4.199,-5.806 8.124,-10.599 11.769,-14.388 -3.692,-2.122 -7.406,-3.926 -11.067,-5.322 -4.849,-1.848 -9.456,-2.95 -13.68,-3.327 -4.591,3.828 -8.646,9.022 -12.106,15.546 -0.936,1.827 -1.753,3.653 -2.485,5.472 2.833,0.279 5.845,0.891 9.011,1.853 m 0.644,30.852 C 13.374,-28.713 9.587,-30.289 6.018,-31.131 4.793,-31.42 3.625,-31.59 2.49,-31.702 c 0.126,10.137 2.191,17.93 3.106,20.898 1.487,0.182 3.128,0.702 4.796,1.526 1.431,-4.376 3.621,-10.36 6.767,-17.287 m 16.171,13.208 c -2.05,-2.341 -4.373,-4.62 -6.931,-6.766 -2.557,-2.146 -5.205,-4.038 -7.867,-5.651 -3.149,6.949 -5.323,12.933 -6.729,17.26 1.027,0.611 2.051,1.331 3.041,2.162 0.991,0.831 1.877,1.714 2.657,2.619 4.017,-2.136 9.532,-5.316 15.829,-9.624 M 20.834,1.982 c 3.083,0.387 11.116,1.067 21.121,-0.568 -0.308,-1.1 -0.679,-2.221 -1.176,-3.377 -1.448,-3.369 -3.658,-6.824 -6.432,-10.179 -6.275,4.302 -11.788,7.497 -15.848,9.666 1.101,1.5 1.898,3.026 2.335,4.458 M 42.342,2.981 C 32.784,4.564 24.953,4.054 21.175,3.613 21.297,4.698 21.168,5.685 20.772,6.518 25.615,9.1 32.288,12.02 40.889,12.995 42.652,10.348 43.137,6.903 42.342,2.981 M 43.907,2.69 c 0.807,4.003 0.387,7.594 -1.255,10.485 3.313,0.262 6.895,0.229 10.753,-0.221 4.265,-0.485 8.061,-1.63 11.424,-3.111 C 65.755,8.568 66.486,7.156 66.988,5.595 68.071,2.229 68.103,-1.659 67.21,-5.837 60.153,-1.73 52.343,1.117 43.907,2.69 m 10.096,-32.629 c -3.09,-3.587 -6.636,-7.095 -10.584,-10.408 l -0.05,-0.043 c -3.951,-3.315 -8.026,-6.2 -12.098,-8.621 -5.016,7.662 -8.976,15.124 -12.074,21.799 2.784,1.675 5.551,3.642 8.217,5.88 2.666,2.237 5.084,4.619 7.216,7.07 6.037,-4.21 12.697,-9.405 19.373,-15.677 m -18.356,16.893 c 2.83,3.441 5.091,6.991 6.582,10.459 0.545,1.268 0.982,2.511 1.314,3.722 7.205,-1.331 15.314,-3.881 23.284,-8.581 -1.789,-6.742 -5.882,-14.142 -11.804,-21.286 -6.674,6.264 -13.332,11.464 -19.376,15.686 M 5.243,-57.829 c -4.27,-0.154 -8.093,0.553 -11.221,2.205 -1.449,0.765 -2.712,1.729 -3.807,2.863 -0.874,3.568 -1.342,7.505 -1.079,11.789 0.227,3.875 0.816,7.408 1.649,10.624 2.56,-2.119 6.024,-3.156 10.107,-3.055 0.084,-8.577 1.532,-16.762 4.351,-24.426 m -2.754,24.514 c 1.25,0.117 2.549,0.331 3.892,0.648 3.674,0.866 7.562,2.476 11.442,4.666 3.108,-6.686 7.073,-14.145 12.082,-21.805 -8.063,-4.59 -16.061,-7.334 -23.009,-7.926 -3.244,8.665 -4.347,17.091 -4.407,24.417 m 84.901,17.134 v 0 c 0.062,-0.617 0.106,-1.244 0.116,-1.892 0.03,-1.908 -0.196,-3.927 -0.617,-6.014 -3.042,4.824 -7.295,9.387 -12.745,13.637 -1.772,1.341 -3.618,2.564 -5.502,3.723 1.091,4.72 1.057,9.051 -0.15,12.806 -0.26,0.809 -0.606,1.648 -1.033,2.491 0.17,-0.09 0.34,-0.18 0.507,-0.271 v 0 C 76.706,2.356 83.544,-6.176 87.39,-16.181 M 33.209,16.997 v 0 c 2.739,-0.349 4.927,-1.226 6.439,-2.558 -8.463,-1.13 -15.042,-4.07 -19.835,-6.644 -0.66,0.574 -1.515,0.923 -2.501,1.07 2.873,3.165 6.38,5.587 10.459,7.258 v 0 c 1.782,0.383 3.595,0.679 5.438,0.874 M 11.169,9.376 v 0.001 c 3.042,1.904 6.288,3.512 9.707,4.763 C 18.793,12.652 16.92,10.9 15.26,8.9 13.829,8.755 12.247,8.288 10.627,7.532 c 0.086,0.562 0.257,1.192 0.542,1.844 M -9.513,-15.148 c 2.351,3.713 5.339,6.735 8.943,9.008 -0.026,-0.997 0.169,-1.899 0.619,-2.648 -3.367,-4.274 -7.406,-10.242 -9.988,-18.379 -1.044,1.715 -1.528,4.01 -1.401,6.75 0.518,1.798 1.126,3.557 1.827,5.269 m -3.869,-19.675 c 0,3.305 0.323,6.534 0.914,9.67 0.402,-1.532 1.063,-2.851 1.968,-3.928 -0.981,-3.54 -1.687,-7.452 -1.941,-11.797 -0.072,-1.182 -0.08,-2.332 -0.054,-3.463 v 0 c -0.573,3.088 -0.887,6.266 -0.887,9.518 m 4.581,-21.323 c -0.064,0.19 -0.126,0.382 -0.188,0.575 0.757,-0.568 1.522,-1.054 2.274,-1.451 3.488,-1.841 7.747,-2.627 12.586,-2.371 0.816,-2.062 1.703,-4.097 2.718,-6.079 3.245,-6.119 7.01,-11.108 11.247,-14.944 -2.167,-0.056 -4.23,0.075 -6.132,0.448 -0.575,0.113 -1.123,0.257 -1.666,0.407 -9.126,5.466 -16.44,13.646 -20.839,23.415 m 42.58,-30.552 v 0 c -1.3,0.388 -2.658,0.887 -4.057,1.534 -2.029,0.938 -3.976,2.099 -5.842,3.471 3.91,0.508 8.098,1.594 12.457,3.256 3.858,1.471 7.769,3.382 11.652,5.638 5.002,-4.986 9.451,-7.996 13.313,-8.997 -6.832,-3.296 -14.488,-5.144 -22.568,-5.144 -1.671,0 -3.323,0.087 -4.955,0.242 m 29.864,6.108 c -0.104,0.006 -0.206,0.003 -0.312,0.013 -3.871,0.349 -8.54,3.235 -13.948,8.582 4.34,2.625 8.629,5.701 12.746,9.156 l 0.055,0.046 c 4.146,3.478 7.941,7.196 11.298,11.042 4.334,-6.26 6.368,-11.364 6.04,-15.241 -0.008,-0.089 -0.025,-0.173 -0.035,-0.261 -4.33,-5.43 -9.71,-9.985 -15.844,-13.337 M 38.734,20.451 c -30.527,0 -55.275,-24.747 -55.275,-55.275 0,-30.528 24.748,-55.276 55.275,-55.276 30.528,0 55.276,24.748 55.276,55.276 0,30.528 -24.748,55.275 -55.276,55.275" />
      </g>
    </g>
  </g>
</svg>
